<?xml version="1.0" standalone="no"?>
<!DOCTYPE svg PUBLIC "-//W3C//DTD SVG 20010904//EN"
 "http://www.w3.org/TR/2001/REC-SVG-20010904/DTD/svg10.dtd">
<svg version="1.0" xmlns="http://www.w3.org/2000/svg"
 width="534.000000pt" height="534.000000pt" viewBox="0 0 534.000000 534.000000"
 preserveAspectRatio="xMidYMid meet">

<g transform="translate(0.000000,534.000000) scale(0.100000,-0.100000)"
fill="#000000" stroke="none">
<path d="M2470 5334 c-590 -54 -1115 -273 -1544 -645 -488 -422 -797 -984
-897 -1630 -33 -207 -33 -571 0 -778 182 -1176 1076 -2070 2252 -2252 207 -33
571 -33 778 0 1176 182 2070 1076 2252 2252 33 207 33 571 0 778 -181 1173
-1082 2075 -2247 2251 -134 20 -480 34 -594 24z m1755 -1373 c74 -5 90 -9 93
-23 4 -20 -11 -64 -228 -653 -88 -242 -221 -609 -295 -815 -189 -529 -261
-721 -278 -737 -9 -9 -23 -12 -35 -9 -20 7 -20 9 14 104 19 53 196 540 393
1082 197 542 356 988 354 993 -2 4 -229 7 -504 7 -514 0 -515 0 -491 37 6 10
87 13 328 16 175 1 373 3 439 4 66 0 160 -2 210 -6z m-1585 -327 c0 -5 -89
-190 -339 -706 -55 -115 -105 -208 -110 -208 -11 0 -71 77 -71 91 0 4 -81 172
-180 375 l-179 367 -21 -48 c-26 -60 -223 -596 -295 -800 -29 -82 -126 -350
-215 -595 -222 -608 -230 -629 -230 -640 0 -6 114 -10 296 -10 l295 0 -3 -32
-3 -33 -318 -2 c-176 -1 -325 1 -333 4 -8 3 -14 13 -14 23 0 28 118 362 318
900 99 267 219 591 267 720 48 129 114 312 146 405 33 94 62 176 64 183 3 9
105 12 465 12 253 0 460 -3 460 -6z m1145 -21 c-7 -19 -333 -879 -462 -1218
-42 -110 -78 -202 -79 -204 -2 -2 -4 320 -4 717 l0 722 276 0 c259 0 276 -1
269 -17z m-2140 -1097 c84 -156 375 -762 375 -780 0 -14 -27 -16 -220 -16
l-220 0 0 450 c0 248 2 450 4 450 3 0 30 -47 61 -104z m1135 -351 l0 -445
-215 0 c-184 0 -215 2 -215 15 0 28 412 875 425 875 3 0 5 -200 5 -445z"/>
</g>
</svg>
